<svg xmlns="http://www.w3.org/2000/svg" width="42.733" height="51.289" viewBox="0 0 42.733 51.289">
  <g id="Icon_ionic-logo-apple" data-name="Icon ionic-logo-apple" transform="translate(-6.748 -4.5)">
    <path id="Path_8" data-name="Path 8" d="M38.479,10.821c-4.487,0-6.383,2.2-9.507,2.2-3.2,0-5.648-2.19-9.534-2.19-3.806,0-7.865,2.39-10.442,6.463-3.619,5.742-3,16.558,2.858,25.772,2.1,3.3,4.9,7,8.573,7.037h.067c3.191,0,4.139-2.15,8.533-2.177h.067c4.326,0,5.194,2.163,8.372,2.163h.067c3.672-.04,6.623-4.139,8.72-7.424a36.524,36.524,0,0,0,3.231-6.223C41,33.134,39.64,20.769,48.026,16.029a12.556,12.556,0,0,0-9.548-5.208Z" transform="translate(0 5.683)" fill="#63a797"/>
    <path id="Path_9" data-name="Path 9" d="M27.771,4.5A11.677,11.677,0,0,0,20.16,8.72c-1.656,2.07-3.018,5.141-2.484,8.119h.214a9.912,9.912,0,0,0,7.451-4.019A11.373,11.373,0,0,0,27.771,4.5Z" transform="translate(9.719)" fill="#63a797"/>
  </g>
</svg>
